<svg xmlns="http://www.w3.org/2000/svg" version="1.1" xmlns:xlink="http://www.w3.org/1999/xlink" viewBox="0 0 200 200" width="200" height="200"><rect width="200" height="200" fill="url('#gradient')"></rect><defs><linearGradient id="gradient" gradientTransform="rotate(65 0.5 0.5)"><stop offset="0%" stop-color="#310760"></stop><stop offset="100%" stop-color="#3d2d3d"></stop></linearGradient></defs><g><g fill="#534365" transform="matrix(2.041717791411043,0,0,2.041717791411043,22.058597255521015,115.11105500905792)" stroke="#cad4e0" stroke-width="1.25"><path d="M9.98 0L9.15-2.66L4.45-2.66L3.63 0L-0.03 0L5.19-14.22L8.41-14.22L13.66 0L9.98 0ZM6.80-10.23L5.27-5.30L8.33-5.30L6.80-10.23ZM21.00-10.64L20.94-7.59L19.85-7.67Q18.30-7.67 17.86-6.69L17.86-6.69L17.86 0L14.57 0L14.57-10.57L17.66-10.57L17.76-9.21Q18.59-10.76 20.08-10.76L20.08-10.76Q20.61-10.76 21.00-10.64L21.00-10.64ZM27.66-2.97L27.66-2.97Q27.66-3.39 27.22-3.64Q26.78-3.90 25.55-4.17Q24.32-4.44 23.52-4.89Q22.71-5.33 22.29-5.97Q21.88-6.60 21.88-7.42L21.88-7.42Q21.88-8.88 23.08-9.82Q24.28-10.76 26.22-10.76L26.22-10.76Q28.31-10.76 29.58-9.81Q30.85-8.87 30.85-7.32L30.85-7.32L27.55-7.32Q27.55-8.59 26.21-8.59L26.21-8.59Q25.69-8.59 25.34-8.31Q24.99-8.02 24.99-7.59L24.99-7.59Q24.99-7.15 25.42-6.88Q25.85-6.60 26.79-6.43Q27.73-6.25 28.45-6.01L28.45-6.01Q30.83-5.19 30.83-3.07L30.83-3.07Q30.83-1.62 29.55-0.71Q28.26 0.20 26.22 0.20L26.22 0.20Q24.86 0.20 23.80-0.29Q22.73-0.78 22.14-1.62Q21.54-2.46 21.54-3.39L21.54-3.39L24.62-3.39Q24.64-2.66 25.11-2.32Q25.58-1.98 26.31-1.98L26.31-1.98Q26.98-1.98 27.32-2.26Q27.66-2.53 27.66-2.97ZM35.59-15L35.59-9.43Q36.64-10.76 38.28-10.76L38.28-10.76Q40.03-10.76 40.92-9.73Q41.81-8.69 41.83-6.67L41.83-6.67L41.83 0L38.53 0L38.53-6.59Q38.53-7.43 38.18-7.83Q37.84-8.22 37.02-8.22L37.02-8.22Q36.01-8.22 35.59-7.58L35.59-7.58L35.59 0L32.29 0L32.29-15L35.59-15ZM52.90 0L49.61 0Q49.43-0.32 49.30-0.95L49.30-0.95Q48.39 0.20 46.76 0.20L46.76 0.20Q45.26 0.20 44.22-0.71Q43.17-1.61 43.17-2.98L43.17-2.98Q43.17-4.70 44.44-5.58Q45.71-6.46 48.13-6.46L48.13-6.46L49.15-6.46L49.15-7.01Q49.15-8.47 47.89-8.47L47.89-8.47Q46.72-8.47 46.72-7.31L46.72-7.31L43.43-7.31Q43.43-8.85 44.73-9.80Q46.04-10.76 48.06-10.76Q50.08-10.76 51.25-9.78Q52.42-8.79 52.45-7.07L52.45-7.07L52.45-2.39Q52.47-0.94 52.90-0.17L52.90-0.17L52.90 0ZM47.55-2.15L47.55-2.15Q48.16-2.15 48.57-2.41Q48.97-2.68 49.15-3.01L49.15-3.01L49.15-4.70L48.19-4.70Q46.47-4.70 46.47-3.15L46.47-3.15Q46.47-2.71 46.78-2.43Q47.08-2.15 47.55-2.15ZM63.24-8.57L63.24-6.03L57.85-6.03L57.85-2.64L64.22-2.64L64.22 0L54.42 0L54.42-14.22L64.24-14.22L64.24-11.57L57.85-11.57L57.85-8.57L63.24-8.57ZM72.95-3.78L72.95-3.78Q72.95-4.53 72.42-4.95Q71.88-5.37 70.55-5.82Q69.21-6.27 68.36-6.69L68.36-6.69Q65.60-8.05 65.60-10.42L65.60-10.42Q65.60-11.60 66.28-12.50Q66.97-13.41 68.23-13.91Q69.49-14.41 71.06-14.41L71.06-14.41Q72.60-14.41 73.81-13.87Q75.03-13.32 75.70-12.31Q76.38-11.30 76.38-10L76.38-10L72.96-10Q72.96-10.87 72.43-11.35Q71.89-11.83 70.99-11.83L70.99-11.83Q70.07-11.83 69.54-11.42Q69.00-11.02 69.00-10.39L69.00-10.39Q69.00-9.84 69.59-9.40Q70.18-8.96 71.65-8.48Q73.13-8.01 74.07-7.46L74.07-7.46Q76.38-6.13 76.38-3.80L76.38-3.80Q76.38-1.93 74.97-0.87Q73.56 0.20 71.11 0.20L71.11 0.20Q69.38 0.20 67.98-0.42Q66.58-1.04 65.87-2.12Q65.17-3.20 65.17-4.61L65.17-4.61L68.60-4.61Q68.60-3.47 69.19-2.92Q69.79-2.38 71.11-2.38L71.11-2.38Q71.96-2.38 72.46-2.75Q72.95-3.12 72.95-3.78Z"></path></g></g></svg>